<svg xmlns="http://www.w3.org/2000/svg">
  <path fill="#3E5771" d="M850.3.2H534.4c-183.9 290.3-287.2 594-343.1 810H619C691.7 551.6 808.1 326 897.8 184.1 881.6 125.6 865.6 64.4 850.3.2z"/>
  <path fill="#4C6A88" d="M889.6 184c53.8 196.8 111.6 361.5 163.5 491.2-11.7 44.5-22.8 89.6-33.1 135H615.9C687.2 551.5 801.5 325.9 889.6 184z"/>
  <path fill="#4A6887" d="M1286.7 0c-76.2 181-165.6 418.1-235 675.7C982.5 507.2 902.9 280 835.6 0h451.1z"/>
  <path fill="#44607C" d="M1283.2 0h158.7v810.2h-428.6c72.3-308.9 180.1-598.1 269.9-810.2z"/>
  <path fill="#384F66" d="M293.4 506.8C238.8 370.9 188 212.9 154.3 38.7c-1.2-6.2-2.4-12.4-3.5-18.7 0-.2-.1-.4-.1-.6-1.1-6.4-2.4-12.8-3.5-19.3h397.4c-109.5 171-190.9 346.8-251.2 506.8v-.1z"/>
  <path fill="#2C3E50" d="M154.7.1c2.2 13.2 4.5 26.4 7 39.4C118.3 89.1 59.8 164.1-1 265.3V.1h155.7z"/>
  <path fill="#32465B" d="M161.1 39.4c32.5 171.7 81.1 327.4 133.5 461.6v3.8c-41 112.3-71.6 216.6-94.3 306l-200.6.4V258C60 160 118 87.5 161.1 39.4z"/>
</svg>